<?xml version="1.0" encoding="utf-8"?>
<svg version="1.1" xmlns="http://www.w3.org/2000/svg" xmlns:xlink="http://www.w3.org/1999/xlink" x="0px" y="0px"
	 viewBox="0 0 19.8 19.8" style="enable-background:new 0 0 19.8 19.8;" xml:space="preserve">
<g>
	<path style="fill:#E8A733;" d="M9.9,9.9l-8.6,4.9
		C-1.4,10.1,0.2,4.1,5,1.4C6.5,0.4,8.1,0,9.9,0V9.9z"/>
	<path style="fill:#00A9CE;" d="M9.9,9.9l8.6,4.9
		c-2.7,4.7-8.8,6.3-13.5,3.6c-1.6-0.9-2.7-2-3.6-3.6L9.9,9.9z"/>
	<path style="fill:#B6D77B;" d="M9.9,9.9V0
		c5.5,0,9.9,4.4,9.9,9.9c0,1.8-0.4,3.4-1.3,4.9L9.9,9.9z"/>
</g>
<g>
	<path style="fill:#FFFFFF;" d="M9.9,0.5
		c5.2,0,9.4,4.2,9.4,9.4c0,5.2-4.2,9.4-9.4,9.4c-5.2,0-9.4-4.2-9.4-9.4C0.5,4.7,4.7,0.5,9.9,0.5 M9.9,0C4.4,0,0,4.4,0,9.9
		c0,5.5,4.4,9.9,9.9,9.9c5.5,0,9.9-4.4,9.9-9.9C19.8,4.4,15.4,0,9.9,0"/>
</g>
</svg>
