<?xml version="1.0" encoding="utf-8"?>
<svg version="1.1" xmlns="http://www.w3.org/2000/svg" xmlns:xlink="http://www.w3.org/1999/xlink" x="0px" y="0px"
	 viewBox="0 0 27.4 25.7" style="enable-background:new 0 0 27.4 25.7;" xml:space="preserve">
<g>
	<path style="fill:#B6D77B;" d="M8,25.4
		c-0.3,0.1-0.7,0.1-1.1,0c-2.4-0.6-5.5-6-5.5-6C1,18.6,1,17.8,1.3,17.2c0.5-1.1,1.9-1.3,3.9-1.4c0.2-1.7,0.4-2.9,0.9-3.6
		c0.9-1.1,2.8-1.3,4.9-1.5c0.1-1.9,0.2-3.3,0.8-4.1c0.8-1,2.5-1.4,4.8-1.6c0.4-2.4,0.7-4,1.5-4.8l0.3-0.3L19,0
		c2.5-0.2,6.3,4.4,7.1,6.1c0.8,1.8,0.2,2.9-0.9,3.2c-0.9,0.2-2.2,0.2-3.8,0.2c-0.2,0-0.4,0-0.6,0c-0.3,2.1-0.7,3.5-1.5,4.2
		c-0.9,0.9-2.4,1.2-4,1.3c-0.2,1.9-0.7,3.7-2,4.4c-0.9,0.5-2.3,0.7-3.8,0.7C9.4,22,9.3,23.5,9,24.5C8.8,24.9,8.5,25.2,8,25.4"/>
</g>
</svg>
