<?xml version="1.0" encoding="utf-8"?>
<svg version="1.1" xmlns="http://www.w3.org/2000/svg" xmlns:xlink="http://www.w3.org/1999/xlink" x="0px" y="0px"
	 viewBox="0 0 29.8 25.4" style="enable-background:new 0 0 29.8 25.4;" xml:space="preserve">
<g>
	<path style="fill:#E9A721;" d="M23.5,13.1
		c-0.3-0.1-2.2-0.5-2.2-0.5s2-0.3,2.3-0.4c2.1-0.7,2.5-3,1.6-4.8c-1-1.9-3.3-2.9-5.2-1.6c-0.7,0.5-1.9,2-1.9,2s0.5-1.9,0.5-2.8
		c0-2.1-1.5-3.8-3.6-3.8c-2.1,0-4.2,1.5-4.1,3.8c0,0.5,0.3,1.3,0.6,2.2c-0.6-0.8-1.3-1.4-1.8-1.7C7.9,4.4,5.5,5,4.5,6.9
		c-1.1,1.8-0.7,4.3,1.5,5.1c0.6,0.2,2.6,0.6,2.6,0.6s-2,0.3-2.5,0.5c-1.8,0.7-2.3,2.6-1.5,4.6C5.3,19.6,8,20.3,9.8,19
		c0.6-0.4,2-1.9,2-1.9s-0.9,2.3-0.9,2.9c-0.2,2.1,1.7,3.8,3.8,3.8s3.8-1.7,3.8-3.8c0-0.7-0.6-2.7-0.6-2.7s1.1,1.4,1.6,1.9
		c1.5,1.2,4,0.6,5.1-1.2C25.9,16.3,25.5,13.7,23.5,13.1"/>
</g>
</svg>
