<?xml version="1.0" encoding="utf-8"?>
<svg version="1.1" xmlns="http://www.w3.org/2000/svg" xmlns:xlink="http://www.w3.org/1999/xlink" x="0px" y="0px"
	 viewBox="0 0 142.4 123.3" style="enable-background:new 0 0 142.4 123.3;" xml:space="preserve">
<style type="text/css">
	.st0{fill:#FFC40C;}
	.st1{fill:none;stroke:#FFC60B;stroke-width:0.73;}
	.st2{fill:none;stroke:#231F20;stroke-width:2;stroke-miterlimit:10;}
	.st3{fill:#231F20;}
	.st4{display:none;}
	.st5{display:inline;fill:none;stroke:#231F20;stroke-width:2;stroke-miterlimit:10;}
	.st6{display:inline;}
</style>
<g id="Hexes">
	<polygon class="st0" points="42,25.2 14.3,25.2 0.4,49.2 14.3,73.2 42,73.2 55.8,49.2 	"/>
	<polygon class="st1" points="42,25.2 14.3,25.2 0.4,49.2 14.3,73.2 42,73.2 55.8,49.2 	"/>
	<polygon class="st0" points="42,75 14.3,75 0.4,99 14.3,123 42,123 55.8,99 	"/>
	<polygon class="st1" points="42,75 14.3,75 0.4,99 14.3,123 42,123 55.8,99 	"/>
	<polygon class="st0" points="85.1,50 57.4,50 43.6,74 57.4,98 85.1,98 99,74 	"/>
	<polygon class="st1" points="85.1,50 57.4,50 43.6,74 57.4,98 85.1,98 99,74 	"/>
	<polygon class="st0" points="85.1,0.4 57.4,0.4 43.6,24.4 57.4,48.4 85.1,48.4 99,24.4 	"/>
	<polygon class="st1" points="85.1,0.4 57.4,0.4 43.6,24.4 57.4,48.4 85.1,48.4 99,24.4 	"/>
	<polygon class="st0" points="128.1,75 100.4,75 86.6,99 100.4,123 128.1,123 142,99 	"/>
	<polygon class="st1" points="128.1,75 100.4,75 86.6,99 100.4,123 128.1,123 142,99 	"/>
	<polygon class="st0" points="128.1,25.2 100.4,25.2 86.6,49.2 100.4,73.2 128.1,73.2 142,49.2 	"/>
</g>
<g id="right-bottom">
	<path class="st2" d="M15.5,48.5l55.3-32.2c1-0.6,2.1-0.5,3.1,0.1l45.1,28.3c1.1,0.7,1.7,1.8,1.7,3.1v49.4c0,1.7-0.8,3.3-2.2,4.3
		l-7.7,5.5c-1.9,1.4-4.5,1.3-6.3-0.1L71.8,81.6c-1.1-0.8-2.6-0.9-3.7-0.1l-41.2,27.6c-1.3,0.9-3.1,0.6-4-0.7l-5.7-7.5
		c-0.9-1.2-0.6-2.8,0.7-3.6L68.6,67c1.2-0.7,2.6-0.6,3.7,0.2l32.8,24.7c1.8,1.3,4.3,0,4.3-2.2L109,55.6c0-1.4-0.8-2.6-2-3.2
		L77.6,36.9"/>
	<g>
		<polygon class="st3" points="71.9,34.1 84.2,30.2 76.7,46.1 		"/>
	</g>
</g>
<g id="left-top" class="st4">
	<path class="st5" d="M112.6,108.9L72.7,86.8c-1.4-0.8-3.1-0.7-4.5,0.2l-36.8,24.5c-1.6,1.1-3.7,0.9-5.2-0.3l-7.4-6.4
		c-0.9-0.8-1.5-2-1.5-3.2V46.7c0-1.6,0.9-3,2.3-3.8L65.8,18c1.3-0.7,2.8-0.7,4,0l50.9,26.6c2.2,1.2,3,3.9,1.7,6l-3.3,5.4
		c-1.2,1.9-3.6,2.6-5.6,1.6L68.5,34c-1.2-0.6-2.7-0.7-3.9,0L30.8,51c-1.5,0.7-2.4,2.2-2.4,3.9l0.4,35.6c0,3.4,3.8,5.4,6.6,3.5
		l24.8-16.2"/>
	<g class="st6">
		<polygon class="st3" points="65.8,74.2 62.8,86.8 53,72.2 		"/>
	</g>
</g>
</svg>
