<?xml version="1.0" encoding="utf-8"?>
<svg version="1.1" xmlns="http://www.w3.org/2000/svg" xmlns:xlink="http://www.w3.org/1999/xlink" x="0px" y="0px"
	 viewBox="0 0 11.6 12.9" style="enable-background:new 0 0 11.6 12.9;" xml:space="preserve">
<style type="text/css">
	.st0{clip-path:url(#SVGID_00000034778756613485318680000017408564639404091524_);}
	
		.st1{clip-path:url(#SVGID_00000034778756613485318680000017408564639404091524_);fill:none;stroke:#FFFFFF;stroke-width:0.237;stroke-miterlimit:10;}
</style>
<g>
	<defs>
		<rect id="SVGID_1_" x="0.2" width="11.5" height="12.8"/>
	</defs>
	<clipPath id="SVGID_00000115476248297461665430000013234388786636081807_">
		<use xlink:href="#SVGID_1_"  style="overflow:visible;"/>
	</clipPath>
	<path style="clip-path:url(#SVGID_00000115476248297461665430000013234388786636081807_);" d="M10.3,5.5c0.2-0.2,0.3-0.5,0.3-0.8
		c0-0.7-0.5-1.3-1.3-1.4c0.1-0.2,0.2-0.4,0.2-0.6c0-0.7-0.6-1.3-1.3-1.3H3.4c-0.7,0-1.3,0.6-1.3,1.3c0,0.2,0.1,0.4,0.2,0.6
		C1.5,3.4,1,4,1,4.7C1,5,1.1,5.3,1.2,5.5C0.6,5.7,0.1,6.3,0.1,7c0,0.8,0.5,1.4,1.2,1.5C1.1,8.8,1,9.2,1,9.5c0,0.8,0.6,1.4,1.3,1.4
		c0,0.1-0.1,0.3-0.1,0.4c0,0.8,0.6,1.4,1.4,1.4h4.3c0.8,0,1.4-0.6,1.4-1.4c0-0.1,0-0.3-0.1-0.4c0.7-0.1,1.3-0.7,1.3-1.4
		c0-0.4-0.1-0.7-0.4-1c0.7-0.2,1.2-0.8,1.2-1.5C11.4,6.3,10.9,5.7,10.3,5.5 M5.8,10c-0.7,0-1.2-0.6-1.2-1.2s0.6-1.2,1.2-1.2
		C6.4,7.6,7,8.1,7,8.8S6.4,10,5.8,10"/>
	
		<path style="clip-path:url(#SVGID_00000115476248297461665430000013234388786636081807_);fill:none;stroke:#FFFFFF;stroke-width:0.237;stroke-miterlimit:10;" d="
		M10.3,5.5c0.2-0.2,0.3-0.5,0.3-0.8c0-0.7-0.5-1.3-1.3-1.4c0.1-0.2,0.2-0.4,0.2-0.6c0-0.7-0.6-1.3-1.3-1.3H3.4
		c-0.7,0-1.3,0.6-1.3,1.3c0,0.2,0.1,0.4,0.2,0.6C1.5,3.4,1,4,1,4.7C1,5,1.1,5.3,1.2,5.5C0.6,5.7,0.1,6.3,0.1,7
		c0,0.8,0.5,1.4,1.2,1.5C1.1,8.8,1,9.2,1,9.5c0,0.8,0.6,1.4,1.3,1.4c0,0.1-0.1,0.3-0.1,0.4c0,0.8,0.6,1.4,1.4,1.4h4.3
		c0.8,0,1.4-0.6,1.4-1.4c0-0.1,0-0.3-0.1-0.4c0.7-0.1,1.3-0.7,1.3-1.4c0-0.4-0.1-0.7-0.4-1c0.7-0.2,1.2-0.8,1.2-1.5
		C11.4,6.3,10.9,5.7,10.3,5.5z M5.8,10c-0.7,0-1.2-0.6-1.2-1.2s0.6-1.2,1.2-1.2C6.4,7.6,7,8.1,7,8.8S6.4,10,5.8,10z"/>
</g>
</svg>
