<?xml version="1.0" encoding="utf-8"?>
<svg version="1.1" xmlns="http://www.w3.org/2000/svg" xmlns:xlink="http://www.w3.org/1999/xlink" x="0px" y="0px"
	 viewBox="0 0 11.5 15.1" style="enable-background:new 0 0 11.5 15.1;" xml:space="preserve">
<style type="text/css">
	.st0{clip-path:url(#SVGID_00000182505208835961672930000009086561137196198309_);}
	.st1{clip-path:url(#SVGID_00000182505208835961672930000009086561137196198309_);fill:#FFFFFF;}
</style>
<g>
	<defs>
		<rect id="SVGID_1_" y="0.3" width="11.5" height="14.8"/>
	</defs>
	<clipPath id="SVGID_00000043419650942822817200000017436709084844621185_">
		<use xlink:href="#SVGID_1_"  style="overflow:visible;"/>
	</clipPath>
	<path style="clip-path:url(#SVGID_00000043419650942822817200000017436709084844621185_);" d="M6.2,14.8c-0.3,0-0.5-0.2-0.5-0.4
		c-0.1-1.9-0.1-3.1-0.1-4c0,0,0-0.3,0-0.3c-0.3,0.3-0.7,0.4-1.1,0.4c-0.1,0-0.3,0-0.5-0.1c-1.3-0.3-2.9-1.3-3.3-3.1
		c-0.3-1.2,0.5-2.1,1-2.4l0,0c0,0,0,0,0,0C1.8,4.9,1.9,5,1.9,5C2,5.7,2.6,6.1,3.6,6.3C4.4,6.5,5,6.8,5.4,7.1c0-0.1,0-0.2-0.1-0.2
		C5.2,6.8,5.1,6.7,4.9,6.5C4.3,5.8,4,5.1,4.1,4.4C4.1,3.7,4.5,3,5.3,2.4c0.8-0.7,1.1-1.4,0.9-2c0-0.1,0-0.1,0-0.2l0-0.1l0.1,0l0,0
		c0.6,0.1,1.9,0.7,2.3,2c0.5,1.6-0.2,2.2-1,2.9C7.5,5.3,7.3,5.4,7.1,5.6C6.9,5.8,6.8,6.1,6.7,6.3C6.6,6.5,6.5,6.7,6.3,6.8
		c0.1,0.4,0.2,1,0.3,1.8C7,8.2,7.6,8,8.4,8c0.9,0,1.5-0.3,1.7-0.9c0-0.1,0-0.1,0.2-0.1h0l0.1,0l0,0c0.4,0.4,0.9,1.5,0.5,2.6
		c-0.7,1.7-2.2,2.4-3.4,2.4c0,0-0.1,0-0.1,0c-0.4,0-0.6-0.1-0.8-0.3c0,0.7,0,1.5,0.1,2.7c0,0.1,0,0.2-0.1,0.3
		C6.5,14.8,6.4,14.8,6.2,14.8L6.2,14.8z"/>
	<path style="clip-path:url(#SVGID_00000043419650942822817200000017436709084844621185_);fill:#FFFFFF;" d="M6.3,0.3
		c0.4,0.1,1.8,0.6,2.2,1.9C9,4.1,8,4.5,7,5.5C6.6,6,6.5,6.6,6.1,6.8C6.3,7.2,6.4,8,6.5,8.9c0.4-0.5,1-0.7,2-0.8
		c1.8,0,1.8-1.1,1.8-1.1c0,0,0,0,0,0c0.3,0.3,0.9,1.3,0.5,2.4c-0.6,1.5-2,2.3-3.2,2.3c0,0-0.1,0-0.1,0c-0.4,0-0.7-0.2-0.9-0.4
		c0,0.8,0,1.7,0.1,3c0,0.1-0.1,0.3-0.4,0.3c0,0,0,0,0,0c-0.2,0-0.4-0.2-0.4-0.3c-0.1-1.9-0.1-3.1-0.1-4l0-0.3c0-0.1,0-0.3,0-0.4
		c-0.3,0.3-0.7,0.6-1.3,0.6c-0.1,0-0.3,0-0.4-0.1C2.6,10,1.2,9,0.8,7.3C0.5,6.1,1.4,5.2,1.7,5c0.1,0-0.1,1,1.9,1.5
		c0.9,0.2,1.6,0.6,2,1.1C5.6,7.2,5.5,7,5.5,6.8C5.3,6.7,5.2,6.6,5,6.4C4.2,5.4,3.6,4,5.4,2.5C7,1.3,6.2,0.3,6.3,0.3 M6.3,0L6.3,0
		L6.1,0L6.1,0.2C6,0.3,6,0.4,6.1,0.4c0.1,0.2,0.3,0.9-0.8,1.9C4.4,3,4,3.7,3.9,4.4C3.9,5.1,4.2,5.8,4.8,6.6c0,0,0,0,0,0
		C4.5,6.4,4.1,6.3,3.7,6.2C2.7,6,2.1,5.6,2,5c0-0.2-0.2-0.3-0.3-0.3h0l0,0l-0.1,0l0,0c-0.5,0.3-1.4,1.3-1,2.6C1,9.2,2.6,10.2,4,10.6
		c0.2,0,0.3,0.1,0.5,0.1c0.4,0,0.7-0.1,1-0.3l0,0.1c0,0.9-0.1,2.1,0.1,4c0,0.3,0.3,0.6,0.6,0.6c0,0,0,0,0,0c0.2,0,0.4-0.1,0.5-0.2
		c0.1-0.1,0.1-0.2,0.1-0.4c-0.1-1-0.1-1.8-0.1-2.4c0.2,0.1,0.4,0.2,0.7,0.2c0,0,0.1,0,0.1,0c1.2-0.1,2.8-0.8,3.5-2.5
		c0.5-1.2-0.1-2.3-0.5-2.7l0,0l-0.1,0l0,0h-0.1C10.1,6.8,10,7,10,7C9.9,7.2,9.7,7.8,8.4,7.8C7.7,7.9,7.1,8,6.7,8.3
		C6.6,7.7,6.5,7.2,6.4,6.9c0.1-0.1,0.2-0.3,0.3-0.5C6.9,6.1,7,5.9,7.2,5.7c0.2-0.2,0.4-0.4,0.5-0.5c0.8-0.7,1.5-1.4,1-3.1
		C8.3,0.8,7,0.1,6.3,0L6.3,0z"/>
</g>
</svg>
