<?xml version="1.0" encoding="utf-8"?>
<svg version="1.1" xmlns="http://www.w3.org/2000/svg" xmlns:xlink="http://www.w3.org/1999/xlink" x="0px" y="0px"
	 viewBox="0 0 48.9 51.1" style="enable-background:new 0 0 48.9 51.1;" xml:space="preserve">
<style type="text/css">
		.st0{clip-path:url(#SVGID_00000182493890921978404840000000910993259444206214_);stroke:#FFFFFF;stroke-width:1.201;stroke-miterlimit:10;}
</style>
<g>
	<defs>
		<rect id="SVGID_1_" width="48.9" height="51.1"/>
	</defs>
	<clipPath id="SVGID_00000098222064028850774380000013948092418077753256_">
		<use xlink:href="#SVGID_1_"  style="overflow:visible;"/>
	</clipPath>
	
		<path style="clip-path:url(#SVGID_00000098222064028850774380000013948092418077753256_);stroke:#FFFFFF;stroke-width:1.201;stroke-miterlimit:10;" d="
		M1.6,37c0.3-1.7,1.3-3.4,2.5-4.6c1.3-1.2,2.7-2,4.1-2.6c1.4-0.6,2.9-1,4.3-1.3c2.9-0.7,5.7-1,8.5-1.3l8.3-0.8
		c2.7-0.3,5.4-0.6,7.8-1.3c1.2-0.3,2.3-0.7,3.2-1.2c0.9-0.5,1.4-1,1.5-1.5c0.2-0.4,0.2-1.2-0.1-1.9c-0.2-0.7-0.7-1.3-1.4-1.9
		c-1.5-1.2-3.8-2.2-6.2-2.8c-2.4-0.7-5-1.1-7.6-1.4c-4.9-0.5-9.9-0.7-14.9-0.6l0.1,3.8L3.6,9.8l7.8-8.1l0.1,3.8
		C16.8,5.7,22.2,6.1,27.6,7c2.9,0.5,5.7,1.1,8.6,2.1c2.9,1,5.8,2.2,8.5,4.6c1.3,1.2,2.6,2.9,3.1,4.9c0.1,0.5,0.3,1,0.3,1.5l0.1,0.8
		c0,0.3,0,0.5,0,0.8c0,1-0.3,2.2-0.8,3.2c-1,2.1-2.8,3.4-4.4,4.2c-1.6,0.7-3.1,1.2-4.6,1.5c-3,0.6-5.8,0.8-8.7,1l-8.3,0.4
		c-2.7,0.2-5.4,0.4-8,0.8c-1.3,0.2-2.5,0.5-3.7,0.9c-1.1,0.4-2.2,0.9-3,1.6C6,36,5.4,36.8,5.2,37.7c-0.2,1-0.2,2.2,0.1,3.2
		c0.6,2,2.5,3.6,4.9,4.7c2.3,1.1,4.9,1.8,7.6,2.2c2.7,0.4,5.4,0.7,8.1,0.8c5.5,0.2,11,0,16.5-0.5l0.2,1C37,50,31.5,50.5,25.8,50.6
		c-2.8,0-5.6,0-8.4-0.4c-2.8-0.3-5.7-0.8-8.4-1.9c-1.4-0.6-2.8-1.2-4-2.3c-1.2-1-2.3-2.4-2.9-4C1.5,40.4,1.3,38.7,1.6,37z"/>
</g>
</svg>
