<?xml version="1.0" encoding="utf-8"?>
<svg version="1.1" xmlns="http://www.w3.org/2000/svg" xmlns:xlink="http://www.w3.org/1999/xlink" x="0px" y="0px"
	 viewBox="0 0 48.9 51.2" style="enable-background:new 0 0 48.9 51.2;" xml:space="preserve">
<style type="text/css">
		.st0{clip-path:url(#SVGID_00000059307451252349601190000007301807957181197197_);stroke:#FFFFFF;stroke-width:1.201;stroke-miterlimit:10;}
</style>
<g>
	<defs>
		<rect id="SVGID_1_" y="0.2" width="48.9" height="51.1"/>
	</defs>
	<clipPath id="SVGID_00000179638315888557120340000015814267167852638103_">
		<use xlink:href="#SVGID_1_"  style="overflow:visible;"/>
	</clipPath>
	
		<path style="clip-path:url(#SVGID_00000179638315888557120340000015814267167852638103_);stroke:#FFFFFF;stroke-width:1.201;stroke-miterlimit:10;" d="
		M47.3,14.2C47,16,46,17.7,44.8,18.8c-1.3,1.2-2.7,2-4.1,2.6c-1.4,0.6-2.9,1-4.3,1.3c-2.9,0.7-5.7,1-8.5,1.3l-8.3,0.8
		c-2.7,0.3-5.4,0.6-7.8,1.3c-1.2,0.3-2.3,0.7-3.2,1.2c-0.9,0.5-1.4,1-1.5,1.5c-0.2,0.4-0.2,1.2,0.1,1.9c0.2,0.7,0.7,1.3,1.4,1.9
		c1.5,1.2,3.8,2.2,6.2,2.8c2.4,0.7,5,1.1,7.6,1.4c4.9,0.5,9.9,0.7,14.9,0.6l-0.1-3.8l8.1,7.8l-7.8,8.1l-0.1-3.8
		c-5.4-0.2-10.7-0.6-16.1-1.5c-2.9-0.5-5.7-1.1-8.6-2.1c-2.9-1-5.8-2.2-8.5-4.6c-1.3-1.2-2.6-2.9-3.1-4.9c-0.1-0.5-0.3-1-0.3-1.5
		l-0.1-0.8c0-0.3,0-0.5,0-0.8c0-1,0.3-2.2,0.8-3.2c1-2.1,2.8-3.4,4.4-4.2c1.6-0.7,3.1-1.2,4.6-1.5c3-0.6,5.8-0.8,8.7-1l8.3-0.4
		c2.7-0.2,5.4-0.4,8-0.8c1.3-0.2,2.6-0.5,3.7-0.9c1.1-0.4,2.2-0.9,3-1.6c0.8-0.7,1.3-1.5,1.6-2.5c0.2-1,0.2-2.2-0.1-3.2
		c-0.6-2-2.5-3.6-4.9-4.7c-2.3-1.1-4.9-1.8-7.6-2.2C28.5,3,25.8,2.7,23,2.6c-5.5-0.2-11,0-16.5,0.5l-0.2-1
		c5.5-0.9,11.1-1.4,16.7-1.5c2.8,0,5.6,0,8.4,0.4c2.8,0.3,5.7,0.8,8.4,1.9c1.4,0.6,2.8,1.2,4,2.3c1.2,1,2.3,2.4,2.9,4
		C47.4,10.8,47.6,12.5,47.3,14.2z"/>
</g>
</svg>
