<?xml version="1.0" encoding="utf-8"?>
<svg version="1.1" xmlns="http://www.w3.org/2000/svg" xmlns:xlink="http://www.w3.org/1999/xlink" x="0px" y="0px"
	 viewBox="0 0 48.9 25.5" xml:space="preserve">
<g>
	<path style="fill:#A6A9A9;" d="M1.8,7.6
		C3.3,8,4.6,7.8,4.6,7.8l0.2,0C3.7,9.2,3,10.9,3,12.8c0,1.8,0.6,3.4,1.7,4.8l-0.1,0c0,0-1.3-0.2-2.8,0.2c-1,0.3-1.3,0.5-1.5,1.5
		c-0.2,1.1,0.5,2.1,0.9,2.2l4.4,1.6l0.1,1.3c0,0.4,0.4,0.7,0.8,0.7l11-1.1h16.3c0.8-0.8,1.2-1.3,1.9-2c1.1-0.2,2-0.7,2.9-1.5
		c0.9,0.5,1.9,0.7,2.9,0.7c1.2,0,2.3-0.3,3.3-1c0,0,0,0,0,0c0.9,0.7,2,0.7,2.5,0c0.4-0.5,0.2-1.4-0.3-2c1.1-1.6,1.8-3.6,1.8-5.8
		c0-2.1-0.6-4.1-1.6-5.6c0.4-0.6,0.5-1.4,0.1-1.9c-0.4-0.5-1.3-0.6-2.1-0.1c-1.1-0.8-2.4-1.2-3.7-1.2c-1.2,0-2.3,0.4-3.3,1
		c-0.7-0.5-1.4-0.9-2.2-1.1c-0.8-0.8-1.3-1.3-2.2-2.2H17.3L6.3,0.4c-0.4,0-0.8,0.3-0.8,0.7L5.4,2.4L1.2,3.9C0.7,4,0.1,5,0.3,6.1
		C0.4,7.1,0.8,7.3,1.8,7.6"/>
</g>
</svg>
